<svg width="128" height="128" viewBox="0 0 128 128" fill="none" xmlns="http://www.w3.org/2000/svg">
<path opacity="0.15" d="M8.43604 110.406C8.43604 111.467 13.0717 112.485 21.3233 113.235C29.5749 113.985 40.7665 114.406 52.436 114.406C64.1056 114.406 75.2971 113.985 83.5487 113.235C91.8003 112.485 96.436 111.467 96.436 110.406C96.436 109.345 91.8003 108.328 83.5487 107.578C75.2971 106.828 64.1056 106.406 52.436 106.406C40.7665 106.406 29.5749 106.828 21.3233 107.578C13.0717 108.328 8.43604 109.345 8.43604 110.406Z" fill="#260F08"/>
<path d="M119.983 24.2196L72.8359 29.9796L77.1559 65.3396L121.929 59.8729C122.242 59.8367 122.544 59.7387 122.819 59.5845C123.093 59.4304 123.334 59.2232 123.528 58.975C123.721 58.7269 123.863 58.4427 123.946 58.139C124.029 57.8354 124.05 57.5183 124.009 57.2063L119.983 24.2196Z" fill="#87635A"/>
<path d="M74.5615 44.1422L121.708 38.3876L123.143 50.1662L76.0015 55.9236L74.5615 44.1422Z" fill="#AD8A85"/>
<path d="M85.6359 36.7797C85.5496 36.1561 85.2217 35.5913 84.7228 35.2073C84.224 34.8232 83.5942 34.6504 82.9693 34.7263C82.659 34.7658 82.3596 34.8662 82.0883 35.0217C81.8169 35.1773 81.579 35.385 81.3882 35.6328C81.1974 35.8806 81.0574 36.1637 80.9764 36.4658C80.8953 36.7678 80.8748 37.083 80.9159 37.393L81.2093 39.7397C81.2447 40.6346 80.9427 41.5101 80.3633 42.193C79.7838 42.8758 78.969 43.3162 78.0803 43.4268C77.1916 43.5375 76.2937 43.3104 75.5645 42.7905C74.8352 42.2707 74.3278 41.4959 74.1426 40.6197L72.8359 29.953L87.3159 13.073C106.569 12.3797 121.449 16.673 122.329 23.873L123.609 34.4063C123.632 34.5856 123.612 34.7677 123.553 34.9383C123.493 35.1089 123.395 35.2635 123.266 35.3899C123.137 35.5164 122.981 35.6114 122.809 35.6674C122.637 35.7234 122.455 35.739 122.276 35.713C121.292 35.526 120.394 35.0291 119.712 34.295C119.031 33.5609 118.603 32.6281 118.489 31.633C118.451 31.3231 118.352 31.0238 118.197 30.7522C118.043 30.4806 117.837 30.2421 117.591 30.0502C117.344 29.8582 117.062 29.7168 116.761 29.6337C116.46 29.5507 116.146 29.5278 115.836 29.5663C115.21 29.6441 114.641 29.9674 114.253 30.465C114.061 30.7114 113.92 30.9931 113.837 31.2942C113.754 31.5953 113.731 31.9098 113.769 32.2197L114.063 34.5663C114.101 34.8763 114.078 35.1907 113.995 35.4918C113.912 35.7929 113.771 36.0746 113.579 36.321C113.387 36.5674 113.148 36.7736 112.877 36.9278C112.605 37.082 112.306 37.1812 111.996 37.2197C111.686 37.2582 111.372 37.2353 111.07 37.1523C110.769 37.0693 110.488 36.9278 110.241 36.7359C109.995 36.544 109.789 36.3054 109.635 36.0338C109.48 35.7622 109.381 35.4629 109.343 35.153C109.306 34.8431 109.208 34.5435 109.056 34.2712C108.903 33.9989 108.699 33.7594 108.453 33.5663C108.208 33.3731 107.927 33.2301 107.627 33.1455C107.327 33.0609 107.013 33.0362 106.703 33.073C106.393 33.1098 106.093 33.2072 105.821 33.3598C105.549 33.5124 105.309 33.7171 105.116 33.9622C104.726 34.4573 104.548 35.0871 104.623 35.713L104.916 38.0863C105.068 39.3382 104.717 40.5991 103.939 41.5918C103.161 42.5845 102.021 43.2276 100.769 43.3797C99.5174 43.5317 98.2565 43.1803 97.2638 42.4026C96.2711 41.625 95.628 40.4848 95.4759 39.233L95.0493 35.6863C95.0133 35.3746 94.9151 35.0733 94.7606 34.8002C94.6061 34.5271 94.3984 34.2877 94.1498 34.0962C93.9012 33.9048 93.6167 33.7652 93.3131 33.6856C93.0096 33.606 92.6932 33.5882 92.3826 33.633C91.7541 33.713 91.1828 34.0382 90.7931 34.5377C90.4035 35.0373 90.2271 35.6706 90.3026 36.2997L90.4626 37.473C90.5404 38.0989 90.3664 38.7301 89.9788 39.2277C89.5912 39.7253 89.0219 40.0486 88.3959 40.1263C87.77 40.2041 87.1388 40.0301 86.6412 39.6425C86.1437 39.255 85.8204 38.6856 85.7426 38.0597L85.6359 36.7797Z" fill="#CAAFA7"/>
<path d="M81.0762 28.9663L115.263 24.8063" stroke="white" stroke-width="0.973958" stroke-linecap="round" stroke-linejoin="round"/>
<path d="M7.44918 51.793C6.48918 60.273 24.1958 69.233 46.9158 71.7396C69.6358 74.2463 88.9958 69.5796 89.9558 61.073L86.0092 96.5663C85.0492 105.046 65.7692 109.9 42.9692 107.233C20.1692 104.566 2.46252 95.7396 3.42252 87.1796L7.44918 51.793Z" fill="#87635A"/>
<path d="M5.82274 65.953C4.86274 74.4063 22.5694 83.393 45.3961 85.9797C68.2227 88.5663 87.4494 83.793 88.4094 75.313L87.0761 87.0997C86.1161 95.5797 66.8361 100.433 44.0361 97.7663C21.2361 95.0997 3.52941 86.2197 4.48941 77.7397L5.82274 65.953Z" fill="#AD8A85"/>
<path d="M60.8359 42.7796C57.5292 42.1129 54.0626 41.5529 50.4892 41.1529C26.4892 38.4862 6.0359 43.0462 5.1559 51.5262L3.02257 70.4062C2.97004 70.8702 3.00942 71.3401 3.13846 71.7888C3.26749 72.2376 3.48366 72.6566 3.77462 73.0218C4.36223 73.7595 5.2188 74.2335 6.1559 74.3396C7.093 74.4457 8.03386 74.1751 8.7715 73.5875C9.50915 72.9999 9.98315 72.1433 10.0892 71.2062C10.1201 70.7234 10.2488 70.2519 10.4673 69.8203C10.6859 69.3887 10.9898 69.0059 11.3607 68.6952C11.7316 68.3846 12.1617 68.1524 12.625 68.0129C13.0882 67.8734 13.575 67.8295 14.0557 67.8837C14.5365 67.9379 15.0012 68.0892 15.4218 68.3284C15.8423 68.5675 16.21 68.8896 16.5023 69.2751C16.7947 69.6606 17.0057 70.1014 17.1227 70.5709C17.2396 71.0403 17.26 71.5287 17.1826 72.0062L16.3826 79.0996C16.2058 80.6626 16.6571 82.2318 17.6373 83.462C18.6175 84.6923 20.0462 85.4828 21.6092 85.6596C23.1722 85.8364 24.7415 85.385 25.9717 84.4049C27.202 83.4247 27.9924 81.9959 28.1692 80.4329C28.2753 79.4958 28.7493 78.6392 29.487 78.0516C30.2246 77.464 31.1655 77.1935 32.1026 77.2996C33.0397 77.4057 33.8962 77.8797 34.4839 78.6173C35.0715 79.355 35.342 80.2958 35.2359 81.2329L34.9692 83.5796C34.8978 84.5006 35.1858 85.4136 35.773 86.1268C36.3601 86.8401 37.2006 87.2983 38.1182 87.4052C39.0358 87.5122 39.9592 87.2596 40.6946 86.7004C41.43 86.1413 41.9203 85.319 42.0626 84.4062L42.1959 83.2062C42.3762 81.6432 43.1701 80.2159 44.4029 79.2382C45.6356 78.2605 47.2062 77.8126 48.7692 77.9929C50.3322 78.1733 51.7596 78.9671 52.7373 80.1999C53.715 81.4326 54.1629 83.0032 53.9826 84.5662L53.5826 88.0862C53.5111 89.0073 53.7992 89.9202 54.3863 90.6335C54.9734 91.3468 55.8139 91.805 56.7316 91.9119C57.6492 92.0188 58.5725 91.7662 59.3079 91.2071C60.0434 90.6479 60.5336 89.8257 60.6759 88.9129L61.6092 80.6462C61.6734 80.3587 61.8434 80.1057 62.0855 79.9377C62.3276 79.7698 62.624 79.699 62.9159 79.7396C63.0718 79.7525 63.2234 79.7972 63.3614 79.8709C63.4993 79.9447 63.6208 80.0458 63.7182 80.1682C63.8156 80.2906 63.887 80.4317 63.9278 80.5827C63.9687 80.7337 63.9783 80.8914 63.9559 81.0462C63.827 82.5882 64.3042 84.1196 65.2861 85.3155C66.268 86.5113 67.6774 87.2773 69.2149 87.4508C70.7525 87.6244 72.2971 87.1918 73.5209 86.2449C74.7447 85.298 75.5512 83.9115 75.7692 82.3796L76.3026 77.6596C76.4087 76.7225 76.8827 75.8659 77.6203 75.2783C78.3579 74.6907 79.2988 74.4202 80.2359 74.5262C81.173 74.6323 82.0296 75.1063 82.6172 75.844C83.2048 76.5816 83.4753 77.5225 83.3692 78.4596C83.2978 79.3806 83.5858 80.2936 84.173 81.0068C84.7601 81.7201 85.6006 82.1783 86.5182 82.2852C87.4358 82.3922 88.3592 82.1396 89.0946 81.5804C89.83 81.0213 90.3203 80.1991 90.4626 79.2862L92.2492 63.7396C92.2902 63.4275 92.2687 63.1105 92.186 62.8068C92.1033 62.5031 91.9611 62.219 91.7675 61.9708C91.5739 61.7226 91.3329 61.5155 91.0586 61.3613C90.7842 61.2072 90.4819 61.1091 90.1692 61.0729L44.1426 55.7396L60.8359 42.7796Z" fill="#CAAFA7"/>
<path d="M59.1559 57.6597L60.8359 42.7797L44.0093 55.953L59.1559 57.6597Z" fill="#87635A"/>
<path d="M9.79591 52.0596C9.12925 57.9262 26.0359 64.6462 47.5292 67.0996C62.3026 68.7796 75.3959 68.0062 82.3826 65.4462" stroke="white" stroke-width="0.973958" stroke-linecap="round" stroke-linejoin="round"/>
</svg>
